# xmcd
#
# Track frame offsets: 
#        150
#        14925
#        31038
#        41770
#        58196
#        71202
#        83319
#        98119
#        114503
#        128654
#        140618
#
# Disc length: 2043 seconds
#
# Revision: 0
# Processed by: cddbd v1.5.2PL0 Copyright (c) Steve Scherf et al.
# Submitted via: ExactAudioCopyFreeDBPlugin 1.0
#
DISCID=9507f90b
DTITLE=Poncho Ponys - Country für Kinder 2
DYEAR=2012
DGENRE=Country
TTITLE0=Der lange lange Zug
TTITLE1=Erdbeeren vom Strauch
TTITLE2=Wach auf, Paun Bunyan!
TTITLE3=Das passt nicht
TTITLE4=Kennst du den Weg nach San Flatula?
TTITLE5=Jagt nicht mehr meinen Hund herum
TTITLE6=Wenn man rinder durch Texas treibt
TTITLE7=Ich hab eine Pferdehaarallergie
TTITLE8=Die unerhörte Geschichte vom Trapper Sam
TTITLE9=Wir den Cowboy endlich aus dem Sattel
TTITLE10=Wenn der Wind weht
EXTD=
EXTT0=
EXTT1=
EXTT2=
EXTT3=
EXTT4=
EXTT5=
EXTT6=
EXTT7=
EXTT8=
EXTT9=
EXTT10=
PLAYORDER=
